<?xml version="1.0" encoding="UTF-8" standalone="no"?>
<!DOCTYPE svg PUBLIC "-//W3C//DTD SVG 1.1//EN" "http://www.w3.org/Graphics/SVG/1.1/DTD/svg11.dtd">
<svg width="100%" height="100%" viewBox="0 0 300 236" version="1.1" xmlns="http://www.w3.org/2000/svg" xmlns:xlink="http://www.w3.org/1999/xlink" xml:space="preserve" xmlns:serif="http://www.serif.com/" style="fill-rule:evenodd;clip-rule:evenodd;stroke-linejoin:round;stroke-miterlimit:2;">
    <g transform="matrix(1,0,0,1,-390.589,-336.382)">
        <g transform="matrix(1,0,0,1,-661.163,-4.28452)">
            <g transform="matrix(0.84094,0,0,0.84094,741.012,119.069)">
                <path d="M401.743,543.358C381.44,514.465 369.516,479.265 369.516,441.303C369.516,343.177 449.181,263.512 547.306,263.512C645.432,263.512 725.097,343.177 725.097,441.303C725.097,479.265 713.173,514.465 692.869,543.358C702.321,522.926 707.595,500.175 707.595,476.201C707.595,387.735 635.772,315.912 547.306,315.912C458.841,315.912 387.018,387.735 387.018,476.201C387.018,500.175 392.292,522.926 401.743,543.358Z"/>
            </g>
        </g>
    </g>
</svg>
