<?xml version="1.0" encoding="UTF-8" standalone="no"?>
<!DOCTYPE svg PUBLIC "-//W3C//DTD SVG 1.1//EN" "http://www.w3.org/Graphics/SVG/1.1/DTD/svg11.dtd">
<svg width="100%" height="100%" viewBox="0 0 312 297" version="1.1" xmlns="http://www.w3.org/2000/svg" xmlns:xlink="http://www.w3.org/1999/xlink" xml:space="preserve" xmlns:serif="http://www.serif.com/" style="fill-rule:evenodd;clip-rule:evenodd;stroke-linecap:round;stroke-linejoin:round;stroke-miterlimit:1.5;">
    <g transform="matrix(1,0,0,1,-384.158,-391.687)">
        <g id="Star" transform="matrix(1,0,0,1,6.48852,0)">
            <g>
                <g transform="matrix(1,0,0,1,-86.5854,-8.78647)">
                    <path d="M588.634,499.305L620.097,402.474L651.559,499.305" style="fill:none;stroke:rgb(232,203,130);stroke-width:4px;"/>
                </g>
                <g transform="matrix(1,0,0,1,-86.5854,-8.78647)">
                    <path d="M651.559,499.305L656.414,514.247L672.125,514.247" style="fill:none;stroke:rgb(232,203,130);stroke-width:4px;"/>
                </g>
                <g transform="matrix(1,0,0,1,-86.5854,-8.78647)">
                    <path d="M672.125,514.247L773.939,514.247L691.57,574.092" style="fill:none;stroke:rgb(232,203,130);stroke-width:4px;"/>
                </g>
                <g transform="matrix(1,0,0,1,-86.5854,-8.78647)">
                    <path d="M691.57,574.092L678.859,583.326L683.714,598.268" style="fill:none;stroke:rgb(232,203,130);stroke-width:4px;"/>
                </g>
                <g transform="matrix(1,0,0,1,-86.5854,-8.78647)">
                    <path d="M683.714,598.268L715.177,695.099L632.807,635.254" style="fill:none;stroke:rgb(232,203,130);stroke-width:4px;"/>
                </g>
                <g transform="matrix(1,0,0,1,-86.5854,-8.78647)">
                    <path d="M632.807,635.254L620.097,626.02L607.387,635.254" style="fill:none;stroke:rgb(232,203,130);stroke-width:4px;"/>
                </g>
                <g transform="matrix(1,0,0,1,-86.5854,-8.78647)">
                    <path d="M607.387,635.254L525.017,695.099L556.479,598.268" style="fill:none;stroke:rgb(232,203,130);stroke-width:4px;"/>
                </g>
                <g transform="matrix(1,0,0,1,-86.5854,-8.78647)">
                    <path d="M556.479,598.268L561.334,583.326L548.624,574.092" style="fill:none;stroke:rgb(232,203,130);stroke-width:4px;"/>
                </g>
                <g transform="matrix(1,0,0,1,-86.5854,-8.78647)">
                    <path d="M548.624,574.092L466.255,514.247L568.069,514.247" style="fill:none;stroke:rgb(232,203,130);stroke-width:4px;"/>
                </g>
                <g transform="matrix(1,0,0,1,-86.5854,-8.78647)">
                    <path d="M568.069,514.247L583.78,514.247L588.634,499.305" style="fill:none;stroke:rgb(232,203,130);stroke-width:4px;"/>
                </g>
                <g transform="matrix(0.550845,0.400212,-0.400212,0.550845,417.747,-3.52828)">
                    <path d="M601.43,459.926L620.097,402.474L638.764,459.926" style="fill:none;stroke:rgb(232,203,130);stroke-width:5.87px;"/>
                </g>
                <g transform="matrix(0.550845,0.400212,-0.400212,0.550845,417.747,-3.52828)">
                    <path d="M713.531,514.247L773.939,514.247L725.068,549.754" style="fill:none;stroke:rgb(232,203,130);stroke-width:5.87px;"/>
                </g>
                <g transform="matrix(0.550845,0.400212,-0.400212,0.550845,417.747,-3.52828)">
                    <path d="M696.509,637.647L715.177,695.099L666.305,659.592" style="fill:none;stroke:rgb(232,203,130);stroke-width:5.87px;"/>
                </g>
                <g transform="matrix(0.550845,0.400212,-0.400212,0.550845,417.747,-3.52828)">
                    <path d="M573.889,659.592L525.017,695.099L543.684,637.647" style="fill:none;stroke:rgb(232,203,130);stroke-width:5.87px;"/>
                </g>
                <g transform="matrix(0.550845,0.400212,-0.400212,0.550845,417.747,-3.52828)">
                    <path d="M515.126,549.754L466.255,514.247L526.663,514.247" style="fill:none;stroke:rgb(232,203,130);stroke-width:5.87px;"/>
                </g>
            </g>
            <g>
                <path d="M533.511,665.586L533.511,617.233" style="fill:none;stroke:rgb(232,203,130);stroke-width:4px;"/>
                <g transform="matrix(0.309017,0.951057,-0.951057,0.309017,896.909,-123.595)">
                    <path d="M533.511,665.586L533.511,617.233" style="fill:none;stroke:rgb(232,203,130);stroke-width:4px;"/>
                </g>
                <g transform="matrix(-0.809017,0.587785,-0.587785,-0.809017,1291.61,691.222)">
                    <path d="M533.511,665.586L533.511,617.233" style="fill:none;stroke:rgb(232,203,130);stroke-width:4px;"/>
                </g>
                <g transform="matrix(-0.809017,-0.587785,0.587785,-0.809017,638.648,1318.4)">
                    <path d="M533.511,665.586L533.511,617.233" style="fill:none;stroke:rgb(232,203,130);stroke-width:4px;"/>
                </g>
                <g transform="matrix(0.309017,-0.951057,0.951057,0.309017,-159.614,891.204)">
                    <path d="M533.511,665.586L533.511,617.233" style="fill:none;stroke:rgb(232,203,130);stroke-width:4px;"/>
                </g>
            </g>
        </g>
    </g>
</svg>
