<?xml version="1.0" encoding="UTF-8" standalone="no"?>
<!DOCTYPE svg PUBLIC "-//W3C//DTD SVG 1.1//EN" "http://www.w3.org/Graphics/SVG/1.1/DTD/svg11.dtd">
<svg width="100%" height="100%" viewBox="0 0 437 800" version="1.1" xmlns="http://www.w3.org/2000/svg" xmlns:xlink="http://www.w3.org/1999/xlink" xml:space="preserve" xmlns:serif="http://www.serif.com/" style="fill-rule:evenodd;clip-rule:evenodd;stroke-linejoin:round;stroke-miterlimit:2;">
    <g transform="matrix(1,0,0,1,-181.818,-0.00151513)">
        <path id="Left-Arrow" serif:id="Left Arrow" d="M269.607,400.01L607.532,62.078C621.733,47.876 621.733,24.853 607.532,10.652C593.331,-3.549 570.308,-3.549 556.107,10.655L192.47,374.301C185.648,381.118 181.818,390.366 181.818,400.01C181.818,409.656 185.651,418.904 192.47,425.724L556.107,789.35C563.205,796.451 572.512,800 581.818,800C591.125,800 600.432,796.451 607.532,789.348C621.733,775.147 621.733,752.124 607.532,737.922L269.607,400.01Z" style="fill:rgb(31,41,55);fill-rule:nonzero;"/>
    </g>
</svg>
