<?xml version="1.0" encoding="UTF-8" standalone="no"?>
<!DOCTYPE svg PUBLIC "-//W3C//DTD SVG 1.1//EN" "http://www.w3.org/Graphics/SVG/1.1/DTD/svg11.dtd">
<svg width="100%" height="100%" viewBox="0 0 1080 1080" version="1.1" xmlns="http://www.w3.org/2000/svg" xmlns:xlink="http://www.w3.org/1999/xlink" xml:space="preserve" xmlns:serif="http://www.serif.com/" style="fill-rule:evenodd;clip-rule:evenodd;stroke-linecap:round;stroke-linejoin:round;stroke-miterlimit:1.5;">
    <g id="Magic-Star" serif:id="Magic Star">
        <g>
            <g transform="matrix(1.31656,0,0,1.31656,-361.063,-350.886)">
                <circle cx="684.407" cy="676.676" r="403.324" style="fill:none;stroke:rgb(232,203,130);stroke-width:3.8px;"/>
            </g>
            <g transform="matrix(1.19656,0,0,1.19656,-278.936,-269.686)">
                <circle cx="684.407" cy="676.676" r="403.324" style="fill:none;stroke:rgb(232,203,130);stroke-width:6.69px;"/>
            </g>
            <g transform="matrix(1.16151,0,0,1.16151,-254.946,-245.967)">
                <circle cx="684.407" cy="676.676" r="403.324" style="fill:none;stroke:rgb(232,203,130);stroke-width:4.3px;"/>
            </g>
            <g transform="matrix(2.16902,0,0,2.16902,-871.511,-761.565)">
                <path d="M680.889,357.12L677.936,378.669C690.83,380.251 703.562,382.958 715.985,386.756L722.051,365.87C741.341,371.741 759.83,379.974 777.101,390.379L765.638,408.863C776.774,415.554 787.304,423.204 797.108,431.728L811.146,415.114C826.379,428.324 839.922,443.365 851.467,459.896L833.477,472.12C840.929,482.761 847.437,494.033 852.927,505.807L872.508,496.339C881.051,514.603 887.306,533.852 891.129,553.65L869.723,557.499C872.202,570.252 873.563,583.196 873.789,596.186L895.528,595.501C895.904,615.66 893.789,635.789 889.229,655.43L868.107,650.24C865.186,662.899 861.163,675.277 856.087,687.236L876.225,695.452C868.369,714.022 858.249,731.55 846.095,747.638L828.911,734.306C821.093,744.682 812.384,754.354 802.882,763.214L817.937,778.911C803.208,792.68 786.833,804.577 769.186,814.33L758.91,795.161C747.548,801.46 735.657,806.754 723.374,810.983L730.743,831.447C711.686,838.034 691.889,842.242 671.8,843.975L670.209,822.284C657.268,823.416 644.252,823.416 631.31,822.284L629.719,843.975C609.63,842.242 589.833,838.034 570.776,831.447L578.145,810.983C565.862,806.754 553.971,801.46 542.609,795.161L532.333,814.33C514.686,804.577 498.312,792.68 483.582,778.911L498.637,763.214C489.136,754.354 480.426,744.682 472.608,734.306L455.424,747.638C443.27,731.55 433.15,714.022 425.294,695.452L445.432,687.236C440.356,675.277 436.334,662.899 433.412,650.24L412.29,655.43C407.731,635.789 405.615,615.66 405.991,595.501L427.73,596.186C427.957,583.196 429.317,570.252 431.796,557.499L410.39,553.65C414.213,533.852 420.468,514.603 429.011,496.339L448.592,505.807C454.082,494.033 460.59,482.761 468.042,472.12L450.052,459.896C461.597,443.365 475.14,428.324 490.373,415.114L504.411,431.728C514.215,423.204 524.745,415.554 535.881,408.863L524.418,390.379C541.689,379.974 560.179,371.741 579.468,365.87L585.534,386.756C597.958,382.958 610.689,380.251 623.583,378.669L620.63,357.12C640.64,354.639 660.879,354.639 680.889,357.12ZM650.76,377.099C773.821,377.099 873.731,477.009 873.731,600.07C873.731,723.131 773.821,823.041 650.76,823.041C527.699,823.041 427.789,723.131 427.789,600.07C427.789,477.009 527.699,377.099 650.76,377.099Z" style="fill:none;stroke:rgb(232,203,130);stroke-width:2.31px;"/>
            </g>
        </g>
        <g transform="matrix(1,0,0,1,-1.13687e-13,-29.7361)">
            <g>
                <g transform="matrix(1,0,0,1,-161.632,109.366)">
                    <path d="M701.632,139.331L773.694,361.116L1006.89,361.116L818.231,498.187L890.294,719.972L701.632,582.901L512.97,719.972L585.033,498.187L396.371,361.116L629.57,361.116L701.632,139.331Z" style="fill:none;stroke:rgb(232,203,130);stroke-width:8px;"/>
                </g>
                <g transform="matrix(0.700633,0,0,0.700633,48.4136,247.165)">
                    <path d="M701.632,139.331L773.694,361.116L1006.89,361.116L818.231,498.187L890.294,719.972L701.632,582.901L512.97,719.972L585.033,498.187L396.371,361.116L629.57,361.116L701.632,139.331Z" style="fill:none;stroke:rgb(232,203,130);stroke-width:7.14px;"/>
                </g>
            </g>
            <g>
                <g transform="matrix(-0.749812,-9.18255e-17,9.18255e-17,-0.749812,1066.09,914.807)">
                    <path d="M848.902,592.582L890.294,719.972L781.929,641.24L797.739,592.582L848.902,592.582ZM621.335,641.24L512.97,719.972L554.362,592.582L605.525,592.582L621.335,641.24ZM504.736,439.848L396.371,361.116L530.317,361.116L546.127,409.775L504.736,439.848ZM660.24,266.722L701.632,139.331L743.024,266.722L701.632,296.794L660.24,266.722ZM872.947,361.116L1006.89,361.116L898.528,439.848L857.137,409.775L872.947,361.116Z" style="fill:none;stroke:rgb(232,203,130);stroke-width:6.67px;"/>
                </g>
                <path d="M540,810.335L540,692.54" style="fill:none;stroke:rgb(232,203,130);stroke-width:5px;"/>
                <g transform="matrix(0.308334,0.951278,-0.951278,0.308334,915.412,-119.671)">
                    <path d="M540,810.335L540,692.54" style="fill:none;stroke:rgb(232,203,130);stroke-width:5px;"/>
                </g>
                <g transform="matrix(-0.80986,0.586623,-0.586623,-0.80986,1311.5,714.242)">
                    <path d="M540,810.335L540,692.54" style="fill:none;stroke:rgb(232,203,130);stroke-width:5px;"/>
                </g>
                <g transform="matrix(-0.807749,-0.589526,0.589526,-0.807749,640.351,1348.16)">
                    <path d="M540,810.335L540,692.54" style="fill:none;stroke:rgb(232,203,130);stroke-width:5px;"/>
                </g>
                <g transform="matrix(0.311746,-0.950165,0.950165,0.311746,-169.621,905.165)">
                    <path d="M540,810.335L540,692.54" style="fill:none;stroke:rgb(232,203,130);stroke-width:5px;"/>
                </g>
            </g>
        </g>
        <g transform="matrix(0.950087,0,0,0.950087,-20.8008,40.7501)">
            <circle cx="590.263" cy="525.478" r="337.905" style="fill:none;stroke:rgb(232,203,130);stroke-width:8.42px;"/>
        </g>
        <g transform="matrix(1.01185,0,0,1.01185,-57.2592,8.29323)">
            <circle cx="590.263" cy="525.478" r="337.905" style="fill:none;stroke:rgb(232,203,130);stroke-width:4.94px;"/>
        </g>
        <g id="Star-Circle" serif:id="Star Circle" transform="matrix(0.914325,0,0,0.914325,46.2644,46.2644)">
            <g>
                <g transform="matrix(1,0,0,1,-27.7835,37.2072)">
                    <path d="M587.164,59.797C695.106,64.449 793.096,107.767 867.619,176.237" style="fill:none;stroke:rgb(232,203,130);stroke-width:4.37px;"/>
                </g>
                <g transform="matrix(1,0,0,1,-27.7835,37.2072)">
                    <path d="M894.34,202.957C963.023,277.713 1006.4,376.083 1010.82,484.424" style="fill:none;stroke:rgb(232,203,130);stroke-width:4.37px;"/>
                </g>
                <g transform="matrix(1,0,0,1,-27.7835,37.2072)">
                    <path d="M1010.82,521.162C1006.4,629.503 963.023,727.873 894.34,802.629" style="fill:none;stroke:rgb(232,203,130);stroke-width:4.37px;"/>
                </g>
                <g transform="matrix(1,0,0,1,-27.7835,37.2072)">
                    <path d="M868.168,828.844C793.345,897.819 694.759,941.397 586.153,945.831" style="fill:none;stroke:rgb(232,203,130);stroke-width:4.37px;"/>
                </g>
                <g transform="matrix(1,0,0,1,-27.7835,37.2072)">
                    <path d="M548.403,945.789C440.196,941.126 341.989,897.605 267.399,828.844" style="fill:none;stroke:rgb(232,203,130);stroke-width:4.37px;"/>
                </g>
                <g transform="matrix(1,0,0,1,-27.7835,37.2072)">
                    <path d="M241.732,803.177C172.757,728.355 129.18,629.768 124.745,521.162" style="fill:none;stroke:rgb(232,203,130);stroke-width:4.37px;"/>
                </g>
                <g transform="matrix(1,0,0,1,-27.7835,37.2072)">
                    <path d="M124.788,483.412C129.424,375.833 172.468,278.138 240.539,203.708" style="fill:none;stroke:rgb(232,203,130);stroke-width:4.37px;"/>
                </g>
                <g transform="matrix(1,0,0,1,-27.7835,37.2072)">
                    <path d="M268.699,175.548C343.128,107.477 440.823,64.433 548.403,59.797" style="fill:none;stroke:rgb(232,203,130);stroke-width:4.37px;"/>
                </g>
            </g>
            <g>
                <g transform="matrix(1,0,0,1,7.93284,19.2355)">
                    <path d="M532.067,57.971L537.302,72.117L551.448,77.352L537.302,82.586L532.067,96.732L526.833,82.586L512.686,77.352L526.833,72.117L532.067,57.971Z" style="fill:none;stroke:rgb(232,203,130);stroke-width:4.37px;"/>
                </g>
                <g transform="matrix(0.707107,0.707107,-0.707107,0.707107,532.008,-204.464)">
                    <path d="M532.067,57.971L537.302,72.117L551.448,77.352L537.302,82.586L532.067,96.732L526.833,82.586L512.686,77.352L526.833,72.117L532.067,57.971Z" style="fill:none;stroke:rgb(232,203,130);stroke-width:4.37px;"/>
                </g>
                <g transform="matrix(2.22045e-16,1,-1,2.22045e-16,1060.76,7.93284)">
                    <path d="M532.067,57.971L537.302,72.117L551.448,77.352L537.302,82.586L532.067,96.732L526.833,82.586L512.686,77.352L526.833,72.117L532.067,57.971Z" style="fill:none;stroke:rgb(232,203,130);stroke-width:4.37px;"/>
                </g>
                <g transform="matrix(-0.707107,0.707107,-0.707107,-0.707107,1284.46,532.008)">
                    <path d="M532.067,57.971L537.302,72.117L551.448,77.352L537.302,82.586L532.067,96.732L526.833,82.586L512.686,77.352L526.833,72.117L532.067,57.971Z" style="fill:none;stroke:rgb(232,203,130);stroke-width:4.37px;"/>
                </g>
                <g transform="matrix(-1,2.77556e-16,-2.77556e-16,-1,1072.07,1060.76)">
                    <path d="M532.067,57.971L537.302,72.117L551.448,77.352L537.302,82.586L532.067,96.732L526.833,82.586L512.686,77.352L526.833,72.117L532.067,57.971Z" style="fill:none;stroke:rgb(232,203,130);stroke-width:4.37px;"/>
                </g>
                <g transform="matrix(-0.707107,-0.707107,0.707107,-0.707107,547.992,1284.46)">
                    <path d="M532.067,57.971L537.302,72.117L551.448,77.352L537.302,82.586L532.067,96.732L526.833,82.586L512.686,77.352L526.833,72.117L532.067,57.971Z" style="fill:none;stroke:rgb(232,203,130);stroke-width:4.37px;"/>
                </g>
                <g transform="matrix(-4.44089e-16,-1,1,-4.44089e-16,19.2355,1072.07)">
                    <path d="M532.067,57.971L537.302,72.117L551.448,77.352L537.302,82.586L532.067,96.732L526.833,82.586L512.686,77.352L526.833,72.117L532.067,57.971Z" style="fill:none;stroke:rgb(232,203,130);stroke-width:4.37px;"/>
                </g>
                <g transform="matrix(0.707107,-0.707107,0.707107,0.707107,-204.464,547.992)">
                    <path d="M532.067,57.971L537.302,72.117L551.448,77.352L537.302,82.586L532.067,96.732L526.833,82.586L512.686,77.352L526.833,72.117L532.067,57.971Z" style="fill:none;stroke:rgb(232,203,130);stroke-width:4.37px;"/>
                </g>
            </g>
        </g>
        <g transform="matrix(1.20037,0,0,1.20037,-132.55,-123.825)">
            <circle cx="560.285" cy="553.017" r="69.969" style="fill:none;stroke:rgb(232,203,130);stroke-width:4.17px;"/>
        </g>
        <g transform="matrix(0.828225,0,0,0.828225,92.7584,92.7584)">
            <g transform="matrix(1.20037,0,0,1.20037,-132.55,-123.825)">
                <circle cx="560.285" cy="553.017" r="69.969" style="fill:none;stroke:rgb(232,203,130);stroke-width:5.03px;"/>
            </g>
            <g transform="matrix(0.941564,0,0,0.941564,12.4556,1.19068)">
                <circle cx="560.285" cy="553.017" r="69.969" style="fill:none;stroke:rgb(232,203,130);stroke-width:6.41px;"/>
            </g>
        </g>
    </g>
</svg>
